# xmcd
#
# Track frame offsets: 
#        150
#        17022
#        35865
#        57372
#        75135
#        92570
#        110880
#        129395
#        149302
#        169020
#        187385
#        206942
#        226227
#        249390
#        268972
#        286537
#        306457
#
# Disc length: 4437 seconds
#
# Revision: 11
# Processed by: cddbd v1.5.2PL0 Copyright (c) Steve Scherf et al.
# Submitted via: ExactAudioCopyFreeDBPlugin 1.0
#
DISCID=f8115311
DTITLE=Various Artist - Hitsville USA:  The Motown Singles Collection
DTITLE=s, 1959 - 1992 [box sets]
DYEAR=1993
DGENRE=Rhythm and Blues
TTITLE0=Stevie Wonder - Part-Time Lover
TTITLE1=El DeBarge - Who's Johnny
TTITLE2=The Temptations - Lady Soul
TTITLE3=Stacy Lattisaw - Nail it to the Wall
TTITLE4=Chico DeBarge - Talk to Me
TTITLE5=Smokey Robinson - Just to See Her
TTITLE6=Smokey Robinson - One Heartbeat
TTITLE7=The Boys - Dial My Heart
TTITLE8=Today - Him or Me
TTITLE9=The Good Girls - Your Sweetness
TTITLE10=Stacy Lattisaw - Where Do We Go from Here (with Johnny Gill)
TTITLE11=Johnny Gill - Rub You the Right Way
TTITLE12=Gerald Alston - Slow Motion
TTITLE13=Another Bad Creation - Iesha
TTITLE14=Boyz II Men - Motownphilly
TTITLE15=Shanice - I Love Your Smile
TTITLE16=Boyz II Men - End of the Road
EXTD=R&B
EXTT0=
EXTT1=
EXTT2=
EXTT3=
EXTT4=
EXTT5=
EXTT6=
EXTT7=
EXTT8=
EXTT9=
EXTT10=
EXTT11=
EXTT12=
EXTT13=
EXTT14=
EXTT15=
EXTT16=
PLAYORDER=
